<mxfile host="drawio-plugin" modified="2022-11-24T20:01:57.640Z" agent="5.0 (X11; Linux x86_64) AppleWebKit/537.36 (KHTML, like Gecko) Chrome/98.0.4758.102 Safari/537.36" etag="xvvqY19fGfK-LTmmzRlf" version="20.5.3" type="embed"><diagram name="Page-1" id="e56a1550-8fbb-45ad-956c-1786394a9013"><mxGraphModel dx="1129" dy="759" grid="1" gridSize="10" guides="1" tooltips="1" connect="1" arrows="1" fold="1" page="1" pageScale="1" pageWidth="2336" pageHeight="1654" background="none" math="0" shadow="0"><root><mxCell id="0"/><mxCell id="1" parent="0"/><mxCell id="2e49270ec7c68f3f-80" value="User" style="swimlane;html=1;fontStyle=0;childLayout=stackLayout;horizontal=1;startSize=26;fillColor=#e0e0e0;horizontalStack=0;resizeParent=1;resizeLast=0;collapsible=1;marginBottom=0;swimlaneFillColor=#ffffff;align=center;rounded=0;shadow=0;comic=0;labelBackgroundColor=none;strokeWidth=1;fontFamily=Verdana;fontSize=14" parent="1" vertex="1"><mxGeometry x="640" y="340" width="430" height="146" as="geometry"><mxRectangle x="640" y="130" width="200" height="30" as="alternateBounds"/></mxGeometry></mxCell><mxCell id="2e49270ec7c68f3f-83" value="Регистрация новых пользователей." style="shape=partialRectangle;top=0;left=0;right=0;bottom=0;html=1;align=left;verticalAlign=top;fillColor=none;spacingLeft=34;spacingRight=4;whiteSpace=wrap;overflow=hidden;rotatable=0;points=[[0,0.5],[1,0.5]];portConstraint=eastwest;dropTarget=0;" parent="2e49270ec7c68f3f-80" vertex="1"><mxGeometry y="26" width="430" height="30" as="geometry"/></mxCell><mxCell id="2e49270ec7c68f3f-84" value="" style="shape=partialRectangle;top=0;left=0;bottom=0;html=1;fillColor=none;align=left;verticalAlign=top;spacingLeft=4;spacingRight=4;whiteSpace=wrap;overflow=hidden;rotatable=0;points=[];portConstraint=eastwest;part=1;" parent="2e49270ec7c68f3f-83" vertex="1" connectable="0"><mxGeometry width="30" height="30" as="geometry"/></mxCell><mxCell id="2e49270ec7c68f3f-85" value="Авторизация пользователей на&amp;nbsp;основе JWT." style="shape=partialRectangle;top=0;left=0;right=0;bottom=0;html=1;align=left;verticalAlign=top;fillColor=none;spacingLeft=34;spacingRight=4;whiteSpace=wrap;overflow=hidden;rotatable=0;points=[[0,0.5],[1,0.5]];portConstraint=eastwest;dropTarget=0;" parent="2e49270ec7c68f3f-80" vertex="1"><mxGeometry y="56" width="430" height="30" as="geometry"/></mxCell><mxCell id="2e49270ec7c68f3f-86" value="" style="shape=partialRectangle;top=0;left=0;bottom=0;html=1;fillColor=none;align=left;verticalAlign=top;spacingLeft=4;spacingRight=4;whiteSpace=wrap;overflow=hidden;rotatable=0;points=[];portConstraint=eastwest;part=1;" parent="2e49270ec7c68f3f-85" vertex="1" connectable="0"><mxGeometry width="30" height="29.999999999999996" as="geometry"/></mxCell><mxCell id="uuqC0KZrG5aBGFZ0a199-29" value="Разделение пользователей по&amp;nbsp;ролям: «Исполнители», «Заказчики»." style="shape=partialRectangle;top=0;left=0;right=0;bottom=0;html=1;align=left;verticalAlign=top;fillColor=none;spacingLeft=34;spacingRight=4;whiteSpace=wrap;overflow=hidden;rotatable=0;points=[[0,0.5],[1,0.5]];portConstraint=eastwest;dropTarget=0;" parent="2e49270ec7c68f3f-80" vertex="1"><mxGeometry y="86" width="430" height="30" as="geometry"/></mxCell><mxCell id="uuqC0KZrG5aBGFZ0a199-30" value="" style="shape=partialRectangle;top=0;left=0;bottom=0;html=1;fillColor=none;align=left;verticalAlign=top;spacingLeft=4;spacingRight=4;whiteSpace=wrap;overflow=hidden;rotatable=0;points=[];portConstraint=eastwest;part=1;" parent="uuqC0KZrG5aBGFZ0a199-29" vertex="1" connectable="0"><mxGeometry width="30" height="30" as="geometry"/></mxCell><mxCell id="uuqC0KZrG5aBGFZ0a199-31" value="Смена пароля пользователя." style="shape=partialRectangle;top=0;left=0;right=0;bottom=0;html=1;align=left;verticalAlign=top;fillColor=none;spacingLeft=34;spacingRight=4;whiteSpace=wrap;overflow=hidden;rotatable=0;points=[[0,0.5],[1,0.5]];portConstraint=eastwest;dropTarget=0;" parent="2e49270ec7c68f3f-80" vertex="1"><mxGeometry y="116" width="430" height="30" as="geometry"/></mxCell><mxCell id="uuqC0KZrG5aBGFZ0a199-32" value="" style="shape=partialRectangle;top=0;left=0;bottom=0;html=1;fillColor=none;align=left;verticalAlign=top;spacingLeft=4;spacingRight=4;whiteSpace=wrap;overflow=hidden;rotatable=0;points=[];portConstraint=eastwest;part=1;" parent="uuqC0KZrG5aBGFZ0a199-31" vertex="1" connectable="0"><mxGeometry width="30" height="30" as="geometry"/></mxCell><mxCell id="uuqC0KZrG5aBGFZ0a199-18" value="Notify" style="swimlane;html=1;fontStyle=0;childLayout=stackLayout;horizontal=1;startSize=26;fillColor=#e0e0e0;horizontalStack=0;resizeParent=1;resizeLast=0;collapsible=1;marginBottom=0;swimlaneFillColor=#ffffff;align=center;rounded=0;shadow=0;comic=0;labelBackgroundColor=none;strokeWidth=1;fontFamily=Verdana;fontSize=14" parent="1" vertex="1"><mxGeometry x="640" y="930" width="430" height="70" as="geometry"><mxRectangle x="-120" y="40" width="200" height="30" as="alternateBounds"/></mxGeometry></mxCell><mxCell id="uuqC0KZrG5aBGFZ0a199-19" value="&lt;div&gt;Рассылка почтовых уведомлений на&amp;nbsp;email о&amp;nbsp;появлении новых заданий.&lt;/div&gt;" style="shape=partialRectangle;top=0;left=0;right=0;bottom=0;html=1;align=left;verticalAlign=top;fillColor=none;spacingLeft=34;spacingRight=4;whiteSpace=wrap;overflow=hidden;rotatable=0;points=[[0,0.5],[1,0.5]];portConstraint=eastwest;dropTarget=0;" parent="uuqC0KZrG5aBGFZ0a199-18" vertex="1"><mxGeometry y="26" width="430" height="44" as="geometry"/></mxCell><mxCell id="uuqC0KZrG5aBGFZ0a199-20" value="" style="shape=partialRectangle;top=0;left=0;bottom=0;html=1;fillColor=none;align=left;verticalAlign=top;spacingLeft=4;spacingRight=4;whiteSpace=wrap;overflow=hidden;rotatable=0;points=[];portConstraint=eastwest;part=1;" parent="uuqC0KZrG5aBGFZ0a199-19" vertex="1" connectable="0"><mxGeometry width="30" height="43.99999999999999" as="geometry"/></mxCell><mxCell id="uuqC0KZrG5aBGFZ0a199-33" value="Task" style="swimlane;html=1;fontStyle=0;childLayout=stackLayout;horizontal=1;startSize=26;fillColor=#e0e0e0;horizontalStack=0;resizeParent=1;resizeLast=0;collapsible=1;marginBottom=0;swimlaneFillColor=#ffffff;align=center;rounded=0;shadow=0;comic=0;labelBackgroundColor=none;strokeWidth=1;fontFamily=Verdana;fontSize=14" parent="1" vertex="1"><mxGeometry x="640" y="520" width="430" height="386" as="geometry"><mxRectangle x="-120" y="40" width="200" height="30" as="alternateBounds"/></mxGeometry></mxCell><mxCell id="uuqC0KZrG5aBGFZ0a199-34" value="Просмотр детальной информации о&amp;nbsp;задании." style="shape=partialRectangle;top=0;left=0;right=0;bottom=0;html=1;align=left;verticalAlign=top;fillColor=none;spacingLeft=34;spacingRight=4;whiteSpace=wrap;overflow=hidden;rotatable=0;points=[[0,0.5],[1,0.5]];portConstraint=eastwest;dropTarget=0;" parent="uuqC0KZrG5aBGFZ0a199-33" vertex="1"><mxGeometry y="26" width="430" height="30" as="geometry"/></mxCell><mxCell id="uuqC0KZrG5aBGFZ0a199-35" value="" style="shape=partialRectangle;top=0;left=0;bottom=0;html=1;fillColor=none;align=left;verticalAlign=top;spacingLeft=4;spacingRight=4;whiteSpace=wrap;overflow=hidden;rotatable=0;points=[];portConstraint=eastwest;part=1;" parent="uuqC0KZrG5aBGFZ0a199-34" vertex="1" connectable="0"><mxGeometry width="30" height="30" as="geometry"/></mxCell><mxCell id="uuqC0KZrG5aBGFZ0a199-36" value="Загрузка изображений для заданий." style="shape=partialRectangle;top=0;left=0;right=0;bottom=0;html=1;align=left;verticalAlign=top;fillColor=none;spacingLeft=34;spacingRight=4;whiteSpace=wrap;overflow=hidden;rotatable=0;points=[[0,0.5],[1,0.5]];portConstraint=eastwest;dropTarget=0;" parent="uuqC0KZrG5aBGFZ0a199-33" vertex="1"><mxGeometry y="56" width="430" height="30" as="geometry"/></mxCell><mxCell id="uuqC0KZrG5aBGFZ0a199-37" value="" style="shape=partialRectangle;top=0;left=0;bottom=0;html=1;fillColor=none;align=left;verticalAlign=top;spacingLeft=4;spacingRight=4;whiteSpace=wrap;overflow=hidden;rotatable=0;points=[];portConstraint=eastwest;part=1;" parent="uuqC0KZrG5aBGFZ0a199-36" vertex="1" connectable="0"><mxGeometry width="30" height="29.999999999999996" as="geometry"/></mxCell><mxCell id="uuqC0KZrG5aBGFZ0a199-38" value="Участие в&amp;nbsp;обсуждении заданий." style="shape=partialRectangle;top=0;left=0;right=0;bottom=0;html=1;align=left;verticalAlign=top;fillColor=none;spacingLeft=34;spacingRight=4;whiteSpace=wrap;overflow=hidden;rotatable=0;points=[[0,0.5],[1,0.5]];portConstraint=eastwest;dropTarget=0;" parent="uuqC0KZrG5aBGFZ0a199-33" vertex="1"><mxGeometry y="86" width="430" height="30" as="geometry"/></mxCell><mxCell id="uuqC0KZrG5aBGFZ0a199-39" value="" style="shape=partialRectangle;top=0;left=0;bottom=0;html=1;fillColor=none;align=left;verticalAlign=top;spacingLeft=4;spacingRight=4;whiteSpace=wrap;overflow=hidden;rotatable=0;points=[];portConstraint=eastwest;part=1;" parent="uuqC0KZrG5aBGFZ0a199-38" vertex="1" connectable="0"><mxGeometry width="30" height="29.999999999999996" as="geometry"/></mxCell><mxCell id="uuqC0KZrG5aBGFZ0a199-40" value="Отклики на&amp;nbsp;задания." style="shape=partialRectangle;top=0;left=0;right=0;bottom=0;html=1;align=left;verticalAlign=top;fillColor=none;spacingLeft=34;spacingRight=4;whiteSpace=wrap;overflow=hidden;rotatable=0;points=[[0,0.5],[1,0.5]];portConstraint=eastwest;dropTarget=0;" parent="uuqC0KZrG5aBGFZ0a199-33" vertex="1"><mxGeometry y="116" width="430" height="30" as="geometry"/></mxCell><mxCell id="uuqC0KZrG5aBGFZ0a199-41" value="" style="shape=partialRectangle;top=0;left=0;bottom=0;html=1;fillColor=none;align=left;verticalAlign=top;spacingLeft=4;spacingRight=4;whiteSpace=wrap;overflow=hidden;rotatable=0;points=[];portConstraint=eastwest;part=1;" parent="uuqC0KZrG5aBGFZ0a199-40" vertex="1" connectable="0"><mxGeometry width="30" height="30" as="geometry"/></mxCell><mxCell id="uuqC0KZrG5aBGFZ0a199-42" value="Пагинация для списка заданий." style="shape=partialRectangle;top=0;left=0;right=0;bottom=0;html=1;align=left;verticalAlign=top;fillColor=none;spacingLeft=34;spacingRight=4;whiteSpace=wrap;overflow=hidden;rotatable=0;points=[[0,0.5],[1,0.5]];portConstraint=eastwest;dropTarget=0;" parent="uuqC0KZrG5aBGFZ0a199-33" vertex="1"><mxGeometry y="146" width="430" height="30" as="geometry"/></mxCell><mxCell id="uuqC0KZrG5aBGFZ0a199-43" value="" style="shape=partialRectangle;top=0;left=0;bottom=0;html=1;fillColor=none;align=left;verticalAlign=top;spacingLeft=4;spacingRight=4;whiteSpace=wrap;overflow=hidden;rotatable=0;points=[];portConstraint=eastwest;part=1;" parent="uuqC0KZrG5aBGFZ0a199-42" vertex="1" connectable="0"><mxGeometry width="30" height="30" as="geometry"/></mxCell><mxCell id="uuqC0KZrG5aBGFZ0a199-44" value="Категоризация заданий." style="shape=partialRectangle;top=0;left=0;right=0;bottom=0;html=1;align=left;verticalAlign=top;fillColor=none;spacingLeft=34;spacingRight=4;whiteSpace=wrap;overflow=hidden;rotatable=0;points=[[0,0.5],[1,0.5]];portConstraint=eastwest;dropTarget=0;" parent="uuqC0KZrG5aBGFZ0a199-33" vertex="1"><mxGeometry y="176" width="430" height="30" as="geometry"/></mxCell><mxCell id="uuqC0KZrG5aBGFZ0a199-45" value="" style="shape=partialRectangle;top=0;left=0;bottom=0;html=1;fillColor=none;align=left;verticalAlign=top;spacingLeft=4;spacingRight=4;whiteSpace=wrap;overflow=hidden;rotatable=0;points=[];portConstraint=eastwest;part=1;" parent="uuqC0KZrG5aBGFZ0a199-44" vertex="1" connectable="0"><mxGeometry width="30" height="30" as="geometry"/></mxCell><mxCell id="uuqC0KZrG5aBGFZ0a199-46" value="Фильтрация заданий." style="shape=partialRectangle;top=0;left=0;right=0;bottom=0;html=1;align=left;verticalAlign=top;fillColor=none;spacingLeft=34;spacingRight=4;whiteSpace=wrap;overflow=hidden;rotatable=0;points=[[0,0.5],[1,0.5]];portConstraint=eastwest;dropTarget=0;" parent="uuqC0KZrG5aBGFZ0a199-33" vertex="1"><mxGeometry y="206" width="430" height="30" as="geometry"/></mxCell><mxCell id="uuqC0KZrG5aBGFZ0a199-47" value="" style="shape=partialRectangle;top=0;left=0;bottom=0;html=1;fillColor=none;align=left;verticalAlign=top;spacingLeft=4;spacingRight=4;whiteSpace=wrap;overflow=hidden;rotatable=0;points=[];portConstraint=eastwest;part=1;" parent="uuqC0KZrG5aBGFZ0a199-46" vertex="1" connectable="0"><mxGeometry width="30" height="30" as="geometry"/></mxCell><mxCell id="uuqC0KZrG5aBGFZ0a199-48" value="Статистика по&amp;nbsp;выполненным заданиям." style="shape=partialRectangle;top=0;left=0;right=0;bottom=0;html=1;align=left;verticalAlign=top;fillColor=none;spacingLeft=34;spacingRight=4;whiteSpace=wrap;overflow=hidden;rotatable=0;points=[[0,0.5],[1,0.5]];portConstraint=eastwest;dropTarget=0;" parent="uuqC0KZrG5aBGFZ0a199-33" vertex="1"><mxGeometry y="236" width="430" height="30" as="geometry"/></mxCell><mxCell id="uuqC0KZrG5aBGFZ0a199-49" value="" style="shape=partialRectangle;top=0;left=0;bottom=0;html=1;fillColor=none;align=left;verticalAlign=top;spacingLeft=4;spacingRight=4;whiteSpace=wrap;overflow=hidden;rotatable=0;points=[];portConstraint=eastwest;part=1;" parent="uuqC0KZrG5aBGFZ0a199-48" vertex="1" connectable="0"><mxGeometry width="30" height="30" as="geometry"/></mxCell><mxCell id="uuqC0KZrG5aBGFZ0a199-50" value="Разбивка заданий по&amp;nbsp;тегам." style="shape=partialRectangle;top=0;left=0;right=0;bottom=0;html=1;align=left;verticalAlign=top;fillColor=none;spacingLeft=34;spacingRight=4;whiteSpace=wrap;overflow=hidden;rotatable=0;points=[[0,0.5],[1,0.5]];portConstraint=eastwest;dropTarget=0;" parent="uuqC0KZrG5aBGFZ0a199-33" vertex="1"><mxGeometry y="266" width="430" height="30" as="geometry"/></mxCell><mxCell id="uuqC0KZrG5aBGFZ0a199-51" value="" style="shape=partialRectangle;top=0;left=0;bottom=0;html=1;fillColor=none;align=left;verticalAlign=top;spacingLeft=4;spacingRight=4;whiteSpace=wrap;overflow=hidden;rotatable=0;points=[];portConstraint=eastwest;part=1;" parent="uuqC0KZrG5aBGFZ0a199-50" vertex="1" connectable="0"><mxGeometry width="30" height="30" as="geometry"/></mxCell><mxCell id="uuqC0KZrG5aBGFZ0a199-52" value="Создание, редактирование, удаление заданий." style="shape=partialRectangle;top=0;left=0;right=0;bottom=0;html=1;align=left;verticalAlign=top;fillColor=none;spacingLeft=34;spacingRight=4;whiteSpace=wrap;overflow=hidden;rotatable=0;points=[[0,0.5],[1,0.5]];portConstraint=eastwest;dropTarget=0;" parent="uuqC0KZrG5aBGFZ0a199-33" vertex="1"><mxGeometry y="296" width="430" height="30" as="geometry"/></mxCell><mxCell id="uuqC0KZrG5aBGFZ0a199-53" value="" style="shape=partialRectangle;top=0;left=0;bottom=0;html=1;fillColor=none;align=left;verticalAlign=top;spacingLeft=4;spacingRight=4;whiteSpace=wrap;overflow=hidden;rotatable=0;points=[];portConstraint=eastwest;part=1;" parent="uuqC0KZrG5aBGFZ0a199-52" vertex="1" connectable="0"><mxGeometry width="30" height="30" as="geometry"/></mxCell><mxCell id="uuqC0KZrG5aBGFZ0a199-54" value="Расчёт рейтинга пользователя." style="shape=partialRectangle;top=0;left=0;right=0;bottom=0;html=1;align=left;verticalAlign=top;fillColor=none;spacingLeft=34;spacingRight=4;whiteSpace=wrap;overflow=hidden;rotatable=0;points=[[0,0.5],[1,0.5]];portConstraint=eastwest;dropTarget=0;" parent="uuqC0KZrG5aBGFZ0a199-33" vertex="1"><mxGeometry y="326" width="430" height="30" as="geometry"/></mxCell><mxCell id="uuqC0KZrG5aBGFZ0a199-55" value="" style="shape=partialRectangle;top=0;left=0;bottom=0;html=1;fillColor=none;align=left;verticalAlign=top;spacingLeft=4;spacingRight=4;whiteSpace=wrap;overflow=hidden;rotatable=0;points=[];portConstraint=eastwest;part=1;" parent="uuqC0KZrG5aBGFZ0a199-54" vertex="1" connectable="0"><mxGeometry width="30" height="30" as="geometry"/></mxCell><mxCell id="_kQqglkAi7SYeofBaEFN-9" value="Комментарии" style="shape=partialRectangle;top=0;left=0;right=0;bottom=0;html=1;align=left;verticalAlign=top;fillColor=none;spacingLeft=34;spacingRight=4;whiteSpace=wrap;overflow=hidden;rotatable=0;points=[[0,0.5],[1,0.5]];portConstraint=eastwest;dropTarget=0;" parent="uuqC0KZrG5aBGFZ0a199-33" vertex="1"><mxGeometry y="356" width="430" height="30" as="geometry"/></mxCell><mxCell id="_kQqglkAi7SYeofBaEFN-10" value="" style="shape=partialRectangle;top=0;left=0;bottom=0;html=1;fillColor=none;align=left;verticalAlign=top;spacingLeft=4;spacingRight=4;whiteSpace=wrap;overflow=hidden;rotatable=0;points=[];portConstraint=eastwest;part=1;" parent="_kQqglkAi7SYeofBaEFN-9" vertex="1" connectable="0"><mxGeometry width="30" height="30" as="geometry"/></mxCell><mxCell id="RA22GNqbnZ4hBdpOOUxH-18" style="edgeStyle=orthogonalEdgeStyle;rounded=0;orthogonalLoop=1;jettySize=auto;html=1;exitX=0.5;exitY=0;exitDx=0;exitDy=0;exitPerimeter=0;entryX=1;entryY=0.25;entryDx=0;entryDy=0;" parent="1" source="_kQqglkAi7SYeofBaEFN-11" target="RA22GNqbnZ4hBdpOOUxH-13" edge="1"><mxGeometry relative="1" as="geometry"/></mxCell><mxCell id="RA22GNqbnZ4hBdpOOUxH-23" style="edgeStyle=orthogonalEdgeStyle;rounded=0;orthogonalLoop=1;jettySize=auto;html=1;exitX=1;exitY=0;exitDx=0;exitDy=114;exitPerimeter=0;entryX=1;entryY=0.25;entryDx=0;entryDy=0;" parent="1" source="_kQqglkAi7SYeofBaEFN-11" target="RA22GNqbnZ4hBdpOOUxH-1" edge="1"><mxGeometry relative="1" as="geometry"><Array as="points"><mxPoint x="1460" y="308"/><mxPoint x="1460" y="44"/></Array></mxGeometry></mxCell><mxCell id="_kQqglkAi7SYeofBaEFN-11" value="DataBase" style="shape=cylinder3;whiteSpace=wrap;html=1;boundedLbl=1;backgroundOutline=1;size=15;" parent="1" vertex="1"><mxGeometry x="1290" y="194" width="120" height="162" as="geometry"/></mxCell><mxCell id="_kQqglkAi7SYeofBaEFN-42" value="" style="edgeStyle=orthogonalEdgeStyle;rounded=0;orthogonalLoop=1;jettySize=auto;html=1;entryX=0;entryY=0.5;entryDx=0;entryDy=0;" parent="1" source="_kQqglkAi7SYeofBaEFN-24" target="uuqC0KZrG5aBGFZ0a199-29" edge="1"><mxGeometry relative="1" as="geometry"><mxPoint x="255" y="320" as="targetPoint"/></mxGeometry></mxCell><mxCell id="_kQqglkAi7SYeofBaEFN-46" value="" style="edgeStyle=orthogonalEdgeStyle;rounded=0;orthogonalLoop=1;jettySize=auto;html=1;entryX=0;entryY=0.5;entryDx=0;entryDy=0;" parent="1" source="_kQqglkAi7SYeofBaEFN-24" target="uuqC0KZrG5aBGFZ0a199-42" edge="1"><mxGeometry relative="1" as="geometry"><mxPoint x="320" y="505" as="targetPoint"/></mxGeometry></mxCell><mxCell id="_kQqglkAi7SYeofBaEFN-51" value="" style="edgeStyle=orthogonalEdgeStyle;rounded=0;orthogonalLoop=1;jettySize=auto;html=1;entryX=0;entryY=0.5;entryDx=0;entryDy=0;" parent="1" source="_kQqglkAi7SYeofBaEFN-24" target="uuqC0KZrG5aBGFZ0a199-19" edge="1"><mxGeometry relative="1" as="geometry"><mxPoint x="140" y="646" as="targetPoint"/></mxGeometry></mxCell><mxCell id="RA22GNqbnZ4hBdpOOUxH-12" style="edgeStyle=orthogonalEdgeStyle;rounded=0;orthogonalLoop=1;jettySize=auto;html=1;exitX=0.5;exitY=0;exitDx=0;exitDy=0;entryX=0;entryY=0.5;entryDx=0;entryDy=0;" parent="1" source="_kQqglkAi7SYeofBaEFN-24" target="RA22GNqbnZ4hBdpOOUxH-10" edge="1"><mxGeometry relative="1" as="geometry"/></mxCell><mxCell id="RA22GNqbnZ4hBdpOOUxH-16" style="edgeStyle=orthogonalEdgeStyle;rounded=0;orthogonalLoop=1;jettySize=auto;html=1;entryX=0;entryY=0.5;entryDx=0;entryDy=0;" parent="1" source="_kQqglkAi7SYeofBaEFN-24" target="RA22GNqbnZ4hBdpOOUxH-14" edge="1"><mxGeometry relative="1" as="geometry"/></mxCell><mxCell id="_kQqglkAi7SYeofBaEFN-24" value="BFF" style="swimlane;html=1;fontStyle=0;childLayout=stackLayout;horizontal=1;startSize=26;fillColor=#e0e0e0;horizontalStack=0;resizeParent=1;resizeLast=0;collapsible=1;marginBottom=0;swimlaneFillColor=#ffffff;align=center;rounded=0;shadow=0;comic=0;labelBackgroundColor=none;strokeWidth=1;fontFamily=Verdana;fontSize=14" parent="1" vertex="1"><mxGeometry x="240" y="384" width="200" height="114" as="geometry"><mxRectangle x="-120" y="40" width="200" height="30" as="alternateBounds"/></mxGeometry></mxCell><mxCell id="_kQqglkAi7SYeofBaEFN-25" value="&lt;div&gt;сервис, который взаимодействует с&amp;nbsp;другими сервисами приложения и&amp;nbsp;готовит данные для фронтенда.&lt;/div&gt;" style="shape=partialRectangle;top=0;left=0;right=0;bottom=0;html=1;align=left;verticalAlign=top;fillColor=none;spacingLeft=34;spacingRight=4;whiteSpace=wrap;overflow=hidden;rotatable=0;points=[[0,0.5],[1,0.5]];portConstraint=eastwest;dropTarget=0;" parent="_kQqglkAi7SYeofBaEFN-24" vertex="1"><mxGeometry y="26" width="200" height="84" as="geometry"/></mxCell><mxCell id="_kQqglkAi7SYeofBaEFN-26" value="" style="shape=partialRectangle;top=0;left=0;bottom=0;html=1;fillColor=none;align=left;verticalAlign=top;spacingLeft=4;spacingRight=4;whiteSpace=wrap;overflow=hidden;rotatable=0;points=[];portConstraint=eastwest;part=1;" parent="_kQqglkAi7SYeofBaEFN-25" vertex="1" connectable="0"><mxGeometry width="30" height="83.99999999999997" as="geometry"/></mxCell><mxCell id="_kQqglkAi7SYeofBaEFN-30" value="" style="endArrow=classic;html=1;rounded=0;" parent="1" edge="1"><mxGeometry width="50" height="50" relative="1" as="geometry"><mxPoint x="1070" y="282.5" as="sourcePoint"/><mxPoint x="1290" y="282.5" as="targetPoint"/><Array as="points"/></mxGeometry></mxCell><mxCell id="_kQqglkAi7SYeofBaEFN-32" value="" style="endArrow=classic;html=1;rounded=0;exitX=0.008;exitY=0.765;exitDx=0;exitDy=0;exitPerimeter=0;" parent="1" source="_kQqglkAi7SYeofBaEFN-11" edge="1"><mxGeometry width="50" height="50" relative="1" as="geometry"><mxPoint x="1081.29" y="250" as="sourcePoint"/><mxPoint x="1070" y="320" as="targetPoint"/><Array as="points"><mxPoint x="1160" y="320"/></Array></mxGeometry></mxCell><mxCell id="_kQqglkAi7SYeofBaEFN-33" value="DataBase" style="shape=cylinder3;whiteSpace=wrap;html=1;boundedLbl=1;backgroundOutline=1;size=15;" parent="1" vertex="1"><mxGeometry x="1300" y="450" width="120" height="162" as="geometry"/></mxCell><mxCell id="_kQqglkAi7SYeofBaEFN-34" value="" style="endArrow=classic;html=1;rounded=0;entryX=0;entryY=0;entryDx=0;entryDy=47.99999999999999;entryPerimeter=0;exitX=1.003;exitY=0.183;exitDx=0;exitDy=0;exitPerimeter=0;" parent="1" edge="1"><mxGeometry width="50" height="50" relative="1" as="geometry"><mxPoint x="1071.2899999999995" y="509.03000000000003" as="sourcePoint"/><mxPoint x="1300" y="509.54" as="targetPoint"/></mxGeometry></mxCell><mxCell id="_kQqglkAi7SYeofBaEFN-35" value="" style="endArrow=classic;html=1;rounded=0;exitX=0;exitY=0;exitDx=0;exitDy=113.99999999999997;exitPerimeter=0;" parent="1" edge="1"><mxGeometry width="50" height="50" relative="1" as="geometry"><mxPoint x="1300" y="575.54" as="sourcePoint"/><mxPoint x="1070" y="575.54" as="targetPoint"/></mxGeometry></mxCell><mxCell id="RA22GNqbnZ4hBdpOOUxH-1" value="Reviews" style="swimlane;html=1;fontStyle=0;childLayout=stackLayout;horizontal=1;startSize=26;fillColor=#e0e0e0;horizontalStack=0;resizeParent=1;resizeLast=0;collapsible=1;marginBottom=0;swimlaneFillColor=#ffffff;align=center;rounded=0;shadow=0;comic=0;labelBackgroundColor=none;strokeWidth=1;fontFamily=Verdana;fontSize=14" parent="1" vertex="1"><mxGeometry x="640" y="30" width="430" height="56" as="geometry"><mxRectangle x="640" y="130" width="200" height="30" as="alternateBounds"/></mxGeometry></mxCell><mxCell id="RA22GNqbnZ4hBdpOOUxH-10" value="Создание отзывов" style="shape=partialRectangle;top=0;left=0;right=0;bottom=0;html=1;align=left;verticalAlign=top;fillColor=none;spacingLeft=34;spacingRight=4;whiteSpace=wrap;overflow=hidden;rotatable=0;points=[[0,0.5],[1,0.5]];portConstraint=eastwest;dropTarget=0;" parent="RA22GNqbnZ4hBdpOOUxH-1" vertex="1"><mxGeometry y="26" width="430" height="30" as="geometry"/></mxCell><mxCell id="RA22GNqbnZ4hBdpOOUxH-11" value="" style="shape=partialRectangle;top=0;left=0;bottom=0;html=1;fillColor=none;align=left;verticalAlign=top;spacingLeft=4;spacingRight=4;whiteSpace=wrap;overflow=hidden;rotatable=0;points=[];portConstraint=eastwest;part=1;" parent="RA22GNqbnZ4hBdpOOUxH-10" vertex="1" connectable="0"><mxGeometry width="30" height="30" as="geometry"/></mxCell><mxCell id="RA22GNqbnZ4hBdpOOUxH-13" value="Comments" style="swimlane;html=1;fontStyle=0;childLayout=stackLayout;horizontal=1;startSize=26;fillColor=#e0e0e0;horizontalStack=0;resizeParent=1;resizeLast=0;collapsible=1;marginBottom=0;swimlaneFillColor=#ffffff;align=center;rounded=0;shadow=0;comic=0;labelBackgroundColor=none;strokeWidth=1;fontFamily=Verdana;fontSize=14" parent="1" vertex="1"><mxGeometry x="640" y="180" width="430" height="128" as="geometry"><mxRectangle x="-120" y="40" width="200" height="30" as="alternateBounds"/></mxGeometry></mxCell><mxCell id="RA22GNqbnZ4hBdpOOUxH-14" value="1. Создание комментариев" style="shape=partialRectangle;top=0;left=0;right=0;bottom=0;html=1;align=left;verticalAlign=top;fillColor=none;spacingLeft=34;spacingRight=4;whiteSpace=wrap;overflow=hidden;rotatable=0;points=[[0,0.5],[1,0.5]];portConstraint=eastwest;dropTarget=0;" parent="RA22GNqbnZ4hBdpOOUxH-13" vertex="1"><mxGeometry y="26" width="430" height="34" as="geometry"/></mxCell><mxCell id="RA22GNqbnZ4hBdpOOUxH-15" value="" style="shape=partialRectangle;top=0;left=0;bottom=0;html=1;fillColor=none;align=left;verticalAlign=top;spacingLeft=4;spacingRight=4;whiteSpace=wrap;overflow=hidden;rotatable=0;points=[];portConstraint=eastwest;part=1;" parent="RA22GNqbnZ4hBdpOOUxH-14" vertex="1" connectable="0"><mxGeometry width="30" height="33.99999999999999" as="geometry"/></mxCell><mxCell id="2" value="2. Удаление комментариев" style="shape=partialRectangle;top=0;left=0;right=0;bottom=0;html=1;align=left;verticalAlign=top;fillColor=none;spacingLeft=34;spacingRight=4;whiteSpace=wrap;overflow=hidden;rotatable=0;points=[[0,0.5],[1,0.5]];portConstraint=eastwest;dropTarget=0;" vertex="1" parent="RA22GNqbnZ4hBdpOOUxH-13"><mxGeometry y="60" width="430" height="34" as="geometry"/></mxCell><mxCell id="3" value="" style="shape=partialRectangle;top=0;left=0;bottom=0;html=1;fillColor=none;align=left;verticalAlign=top;spacingLeft=4;spacingRight=4;whiteSpace=wrap;overflow=hidden;rotatable=0;points=[];portConstraint=eastwest;part=1;" vertex="1" connectable="0" parent="2"><mxGeometry width="30" height="33.99999999999999" as="geometry"/></mxCell><mxCell id="4" value="3. Показ комментариев" style="shape=partialRectangle;top=0;left=0;right=0;bottom=0;html=1;align=left;verticalAlign=top;fillColor=none;spacingLeft=34;spacingRight=4;whiteSpace=wrap;overflow=hidden;rotatable=0;points=[[0,0.5],[1,0.5]];portConstraint=eastwest;dropTarget=0;" vertex="1" parent="RA22GNqbnZ4hBdpOOUxH-13"><mxGeometry y="94" width="430" height="34" as="geometry"/></mxCell><mxCell id="5" value="" style="shape=partialRectangle;top=0;left=0;bottom=0;html=1;fillColor=none;align=left;verticalAlign=top;spacingLeft=4;spacingRight=4;whiteSpace=wrap;overflow=hidden;rotatable=0;points=[];portConstraint=eastwest;part=1;" vertex="1" connectable="0" parent="4"><mxGeometry width="30" height="33.99999999999999" as="geometry"/></mxCell><mxCell id="RA22GNqbnZ4hBdpOOUxH-17" style="edgeStyle=orthogonalEdgeStyle;rounded=0;orthogonalLoop=1;jettySize=auto;html=1;exitX=1;exitY=0.5;exitDx=0;exitDy=0;entryX=0.145;entryY=0;entryDx=0;entryDy=4.35;entryPerimeter=0;" parent="1" source="RA22GNqbnZ4hBdpOOUxH-14" target="_kQqglkAi7SYeofBaEFN-11" edge="1"><mxGeometry relative="1" as="geometry"/></mxCell><mxCell id="RA22GNqbnZ4hBdpOOUxH-22" style="edgeStyle=orthogonalEdgeStyle;rounded=0;orthogonalLoop=1;jettySize=auto;html=1;exitX=1;exitY=0.5;exitDx=0;exitDy=0;entryX=1;entryY=0;entryDx=0;entryDy=48;entryPerimeter=0;" parent="1" source="RA22GNqbnZ4hBdpOOUxH-10" target="_kQqglkAi7SYeofBaEFN-11" edge="1"><mxGeometry relative="1" as="geometry"/></mxCell></root></mxGraphModel></diagram></mxfile>